<?xml version="1.0" encoding="iso-8859-1"?>
<!-- Generator: Adobe Illustrator 22.1.0, SVG Export Plug-In . SVG Version: 6.00 Build 0)  -->
<svg xmlns="http://www.w3.org/2000/svg" xmlns:xlink="http://www.w3.org/1999/xlink" version="1.1" id="Layer_3" x="0px" y="0px" viewBox="0 0 64 64" style="enable-background:new 0 0 64 64;" xml:space="preserve" width="512" height="512">
<g>
	<path style="fill:#8A6F75;" d="M38,7l8-3v0.674c0,2.651-1.498,5.075-3.87,6.261l-0.66,0.323"/>
	<path style="fill:#8A6F75;" d="M26,7l-8-3v0.674c0,2.651,1.498,5.075,3.87,6.261l0.53,0.264"/>
	<path style="fill:#745A58;" d="M42,29l7,2l6,5l5,2l2,4c0,2.703-2.297,5.001-5,5c-2.761,0-5-2.239-5-5l0-2l-10-3l-2,7l3,4v2l2,3v4   l4,2v3h-9l-3-2l1-4l-2-4l-3-4h-2l-3,4l-2,4l1,4l-3,2h-9v-3l4-2v-4l2-3v-2l3-4l-2-7l-10,3l0,2c0,2.761-2.238,5-5,5   C4.297,47,2,44.703,2,42l2-4l5-2l6-5l7-2"/>
	<polyline style="fill:#2C665C;" points="23.407,41.926 24,44 21,48 21,50 19,53 19,56 26,56 28,52 31,48 33,48 36,52 38,56 45,56    45,53 43,50 43,48 40,44 40.593,41.926  "/>
	<polygon style="fill:#657B88;" points="51.118,32.765 48.087,38.826 52,40 55,36  "/>
	<polygon style="fill:#657B88;" points="12.882,32.765 9,36 12,40 15.913,38.826  "/>
	<polygon style="fill:#992C38;" points="42,37 43,33 42,29 37,29 35,33 35,36 34.043,42.745 40.593,41.926  "/>
	<polygon style="fill:#992C38;" points="22,37 21,33 22,29 27,29 29,33 29,36 29.957,42.745 23.407,41.926  "/>
	<polyline style="fill:#8A6F75;" points="27,25 27,29 32,30 37,29 37,25  "/>
	<path style="fill:#745A58;" d="M29.323,4.586C24.059,6.802,19,14.807,19,20l3,5l10,1l10-1l3-5c0-5.195-5.064-13.206-10.33-15.417"/>
	<rect x="24" y="13" style="fill:#D1DA59;" width="6" height="4"/>
	<rect x="34" y="13" style="fill:#D1DA59;" width="6" height="4"/>
	<polygon style="fill:#9037AA;" points="34,10 30,10 29,2 35,2  "/>
	<g>
		<rect x="30" y="14" style="fill:#657B88;" width="4" height="2"/>
	</g>
	<path style="fill:#657B88;" d="M43.395,14H40v2h4.222C43.992,15.338,43.713,14.67,43.395,14z"/>
	<path style="fill:#657B88;" d="M24,16v-2h-3.395c-0.318,0.669-0.597,1.338-0.827,2H24z"/>
	<g>
		<rect x="25" y="19" style="fill:#DFE0E0;" width="2" height="3"/>
	</g>
	<g>
		<rect x="36" y="19" style="fill:#DFE0E0;" width="2" height="3"/>
	</g>
	<g>
		<rect x="23" y="21" style="fill:#8A6F75;" width="17" height="2"/>
	</g>
</g>
</svg>
