<?xml version="1.0" encoding="iso-8859-1"?>
<!-- Generator: Adobe Illustrator 22.1.0, SVG Export Plug-In . SVG Version: 6.00 Build 0)  -->
<svg xmlns="http://www.w3.org/2000/svg" xmlns:xlink="http://www.w3.org/1999/xlink" version="1.1" id="Layer_3" x="0px" y="0px" viewBox="0 0 64 64" style="enable-background:new 0 0 64 64;" xml:space="preserve" width="512" height="512">
<g>
	<g>
		<path style="fill:#D1D8DB;" d="M56.293,34.707l-1.968-1.968C53.471,31.885,53,30.749,53,29.54c0-1.951,1.243-3.675,3.094-4.292    l1.18-0.394C58.307,24.511,59,23.548,59,22.46c0-0.674-0.263-1.308-0.739-1.785l-1.968-1.968l1.414-1.414l1.968,1.968    C60.529,20.115,61,21.251,61,22.46c0,1.951-1.243,3.675-3.094,4.292l-1.18,0.394C55.693,27.489,55,28.452,55,29.54    c0,0.674,0.263,1.308,0.739,1.785l1.968,1.968L56.293,34.707z"/>
	</g>
	<g>
		<path style="fill:#D1D8DB;" d="M7.707,34.707l-1.414-1.414l1.968-1.968C8.737,30.848,9,30.214,9,29.54    c0-1.088-0.693-2.051-1.726-2.395l-1.181-0.394C4.243,26.135,3,24.411,3,22.46c0-1.208,0.471-2.345,1.325-3.199l1.968-1.968    l1.414,1.414l-1.968,1.968C5.263,21.152,5,21.786,5,22.46c0,1.088,0.693,2.051,1.726,2.395l1.181,0.394    C9.757,25.865,11,27.589,11,29.54c0,1.208-0.471,2.345-1.325,3.199L7.707,34.707z"/>
	</g>
	<path style="fill:#946C5A;" d="M48,39v3.858c0,2.652-1.054,5.196-2.929,7.071L45,50H19l-0.071-0.071   C17.054,48.054,16,45.51,16,42.858V39"/>
	<path style="fill:#67AC5B;" d="M22,30L7,37c-2.761,0-5,2.239-5,5s2.239,5,5,5s5-2.239,5-5l9-2l-1,7l-4,12l0,0c0,1.657,1.343,3,3,3   h6l4-8h6h0l4,8h6c1.657,0,3-1.343,3-3l0,0l-4-12l-1-7c0,0,9,2,9,2c0,2.761,2.239,5,5,5s5-2.239,5-5s-2.239-5-5-5l-15-7"/>
	<polyline style="fill:#FAE0B8;" points="39,31 43,40 44,47 35,50 29,50 20,47 21,40 25,31  "/>
	<polygon style="fill:#F29C37;" points="52.119,34.722 49.261,41.391 46.036,40.675 46.965,32.317  "/>
	<polygon style="fill:#F29C37;" points="14.739,41.391 11.881,34.722 17.035,32.317 17.964,40.675  "/>
	<path style="fill:#D5AC90;" d="M37.764,40H33v-7h-2v7h-4.764l-4.284-2.142l-0.813,1.83l4.414,2.207C25.691,41.964,25.845,42,26,42   h5v5h2v-5h5c0.155,0,0.309-0.036,0.447-0.105l4.411-2.213l-0.81-1.824L37.764,40z"/>
	<polygon style="fill:#F29C37;" points="47.313,56.937 37.455,58.909 36,56 45.9,52.7  "/>
	<polygon style="fill:#F29C37;" points="16.688,56.938 26.545,58.909 28,56 18.1,52.7  "/>
	<path style="fill:#97C05C;" d="M50,22c0-2.691-1.924-5.13-5.036-6.927C44.586,6.317,38.936,2,32,2S19.414,6.317,19.036,15.073   C15.924,16.87,14,19.309,14,22c0,4.206,4.68,7.799,11.3,9.276C27.258,32.976,29.545,34,32,34s4.742-1.024,6.7-2.724   C45.32,29.799,50,26.206,50,22z"/>
	<path style="fill:#F29C37;" d="M47.661,17.097c-0.75-0.736-1.65-1.419-2.698-2.024c-0.063-1.467-0.286-2.798-0.627-4.017L38,10   l-6,2l-6-2l-6.337,1.056c-0.341,1.218-0.564,2.55-0.627,4.017c-1.048,0.605-1.947,1.288-2.698,2.024L23,19l3.229-1.076   C28.064,17.312,29.986,17,31.921,17h0.158c1.935,0,3.857,0.312,5.692,0.924L41,19L47.661,17.097z"/>
	<g>
		<circle style="fill:#657B88;" cx="25" cy="14" r="2"/>
	</g>
	<g>
		<circle style="fill:#657B88;" cx="39" cy="14" r="2"/>
	</g>
	<path style="fill:#657B88;" d="M31.844,29h0.312c3.367,0,6.627-0.987,9.43-2.855l1.969-1.313l-1.109-1.664l-1.969,1.313   C38.003,26.129,35.126,27,32.156,27h-0.312c-2.971,0-5.848-0.871-8.32-2.519l-1.969-1.313l-1.109,1.664l1.969,1.313   C25.217,28.013,28.478,29,31.844,29z"/>
	<circle style="fill:#74564A;" cx="32" cy="48" r="2"/>
	<rect x="5" y="2" transform="matrix(-1 -1.224647e-16 1.224647e-16 -1 14 20)" style="fill:#946C5A;" width="4" height="16"/>
	<rect x="55" y="34" transform="matrix(-1 4.479249e-11 -4.479249e-11 -1 114 84)" style="fill:#946C5A;" width="4" height="16"/>
	<rect x="55" y="2" style="fill:#946C5A;" width="4" height="16"/>
	<rect x="5" y="34" style="fill:#946C5A;" width="4" height="16"/>
	<rect x="5" y="33" style="fill:#657B88;" width="4" height="5"/>
	<rect x="5" y="14" style="fill:#657B88;" width="4" height="5"/>
	<rect x="55" y="33" style="fill:#657B88;" width="4" height="5"/>
	<rect x="55" y="14" style="fill:#657B88;" width="4" height="5"/>
</g>
</svg>
