<?xml version="1.0" encoding="iso-8859-1"?>
<!-- Generator: Adobe Illustrator 22.1.0, SVG Export Plug-In . SVG Version: 6.00 Build 0)  -->
<svg xmlns="http://www.w3.org/2000/svg" xmlns:xlink="http://www.w3.org/1999/xlink" version="1.1" id="Layer_3" x="0px" y="0px" viewBox="0 0 64 64" style="enable-background:new 0 0 64 64;" xml:space="preserve" width="512" height="512">
<g>
	<path style="fill:#AAA1A7;" d="M40,6l0.238-0.06c2.462-0.615,4.71-1.888,6.504-3.683L47,2v2c0,3.148-1.482,6.111-4,8l0,0   l-0.32,0.234"/>
	<path style="fill:#AAA1A7;" d="M24,6l-0.238-0.06c-2.462-0.615-4.71-1.888-6.504-3.683L17,2v2c0,3.148,1.482,6.111,4,8l0,0   l0.249,0.168"/>
	<path style="fill:#AAA1A7;" d="M42,29l7,2l6,5l5,2l2,4c0,2.703-2.297,5.001-5,5c-2.761,0-5-2.239-5-5l0-2l-10-3l-2,7l3,4v2l2,3v4   l4,2v3h-9l-3-2l1-4l-2-4l-3-4h-2l-3,4l-2,4l1,4l-3,2h-9v-3l4-2v-4l2-3v-2l3-4l-2-7l-10,3l0,2c0,2.761-2.238,5-5,5   C4.297,47,2,44.703,2,42l2-4l5-2l6-5l7-2"/>
	<polygon style="fill:#705C44;" points="51.118,32.765 48.087,38.826 52,40 55,36  "/>
	<polygon style="fill:#705C44;" points="9,36 12,40 15.913,38.826 12.882,32.765  "/>
	<polyline style="fill:#AAA1A7;" points="27,24 27,29 32,30 37,29 37,24  "/>
	<polyline style="fill:#705C44;" points="42,37 40,44 43,48 43,50 45,53 45,57 49,59 49,62 40,62 37,60 38,56 36,52 33,48 31,48    28,52 26,56 27,60 24,62 15,62 15,59 19,57 19,53 21,50 21,48 24,44 22,37  "/>
	<polygon style="fill:#9E9C3D;" points="40.593,41.926 42,37 43,33 42,29 37,29 32,30 27,29 22,29 21,33 22,37 23.407,41.926 32,43     "/>
	<polygon style="fill:#AAA1A7;" points="15,59 15,62 24,62 27,60 26,56 19,56 19,57  "/>
	<polygon style="fill:#AAA1A7;" points="45,56 38,56 37,60 40,62 49,62 49,59 45,57  "/>
	<path style="fill:#827A80;" d="M45,15l-1.83-2.439c-0.769-1.025-1.28-2.221-1.491-3.485l-0.01-0.057   c-0.421-2.525-2.024-4.696-4.313-5.84L35,2l-3,2l-3-2l-2.356,1.178c-2.289,1.145-3.893,3.316-4.313,5.84l-0.01,0.057   c-0.211,1.264-0.722,2.459-1.491,3.485L19,15l4,8l9,3l9-3L45,15z"/>
	<path style="fill:#D1CDAF;" d="M35,17l-1-6l-2-3l-2,3l-1,6l0.121,0.121C29.684,17.684,30.447,18,31.243,18h1.515   c0.796,0,1.559-0.316,2.121-0.879L35,17z"/>
	<path style="fill:#AAA1A7;" d="M29,13l-6-2v2c0,1.657,1.343,3,3,3h0C27.657,16,29,14.657,29,13L29,13z"/>
	<path style="fill:#AAA1A7;" d="M35,13l6-2v2c0,1.657-1.343,3-3,3h0C36.343,16,35,14.657,35,13L35,13z"/>
	<path style="fill:#705C44;" d="M40.912,40.807l-7.124-3.958l8.478-6.783L42,29c0,0-0.904,0-1.601,0L32,35.719L23.6,29H22   l-0.267,1.068l8.478,6.782l-7.123,3.958c0.112,0.393,0.32,1.118,0.32,1.118l1.457,0.182L32,38.144l7.136,3.964   c0.41-0.051,1.457-0.182,1.457-0.182L40.912,40.807z"/>
	<path style="fill:#AAA1A7;" d="M31.553,22.895C31.693,22.965,31.847,23,32,23s0.307-0.035,0.447-0.105l1.88-0.94l4.869-0.974   l-0.393-1.961l-5,1c-0.087,0.017-0.172,0.046-0.251,0.086L32,20.882l-1.553-0.776c-0.079-0.04-0.164-0.069-0.251-0.086l-5-1   l-0.393,1.961l4.869,0.974L31.553,22.895z"/>
	<path style="fill:#827A80;" d="M6.02,41.804L5.062,46.59C5.662,46.852,6.318,47,7,47c0.007,0,0.013-0.002,0.02-0.002l0.96-4.802   L6.02,41.804z"/>
	<path style="fill:#827A80;" d="M57.98,41.804l-1.961,0.393l0.96,4.802C56.987,46.998,56.993,47,57,47   c0.682,0,1.338-0.148,1.938-0.41L57.98,41.804z"/>
</g>
</svg>
